<svg width="19" height="20" viewBox="0 0 19 20" fill="none" xmlns="http://www.w3.org/2000/svg">
<path d="M13.5 1V5M5.5 1V5M1.5 9H17.5M8.5 13H9.5V16M1.5 5C1.5 4.46957 1.71071 3.96086 2.08579 3.58579C2.46086 3.21071 2.96957 3 3.5 3H15.5C16.0304 3 16.5391 3.21071 16.9142 3.58579C17.2893 3.96086 17.5 4.46957 17.5 5V17C17.5 17.5304 17.2893 18.0391 16.9142 18.4142C16.5391 18.7893 16.0304 19 15.5 19H3.5C2.96957 19 2.46086 18.7893 2.08579 18.4142C1.71071 18.0391 1.5 17.5304 1.5 17V5Z" stroke="white" stroke-width="2" stroke-linecap="round" stroke-linejoin="round"/>
</svg>
