<svg width="14" height="14" viewBox="0 0 14 14" fill="none" xmlns="http://www.w3.org/2000/svg">
<path d="M1 1V13H13M13 1L9 2M8.40865 3.43335L10.256 5.89668M9.66667 7.33333L6.33333 8.66667M3.66667 9C3.66667 9.35362 3.80714 9.69276 4.05719 9.94281C4.30724 10.1929 4.64638 10.3333 5 10.3333C5.35362 10.3333 5.69276 10.1929 5.94281 9.94281C6.19286 9.69276 6.33333 9.35362 6.33333 9C6.33333 8.64638 6.19286 8.30724 5.94281 8.05719C5.69276 7.80714 5.35362 7.66667 5 7.66667C4.64638 7.66667 4.30724 7.80714 4.05719 8.05719C3.80714 8.30724 3.66667 8.64638 3.66667 9ZM6.33333 2.33333C6.33333 2.68696 6.47381 3.02609 6.72386 3.27614C6.97391 3.52619 7.31304 3.66667 7.66667 3.66667C8.02029 3.66667 8.35943 3.52619 8.60948 3.27614C8.85952 3.02609 9 2.68696 9 2.33333C9 1.97971 8.85952 1.64057 8.60948 1.39052C8.35943 1.14048 8.02029 1 7.66667 1C7.31304 1 6.97391 1.14048 6.72386 1.39052C6.47381 1.64057 6.33333 1.97971 6.33333 2.33333ZM9.66667 7C9.66667 7.35362 9.80714 7.69276 10.0572 7.94281C10.3072 8.19286 10.6464 8.33333 11 8.33333C11.3536 8.33333 11.6928 8.19286 11.9428 7.94281C12.1929 7.69276 12.3333 7.35362 12.3333 7C12.3333 6.64638 12.1929 6.30724 11.9428 6.05719C11.6928 5.80714 11.3536 5.66667 11 5.66667C10.6464 5.66667 10.3072 5.80714 10.0572 6.05719C9.80714 6.30724 9.66667 6.64638 9.66667 7Z" stroke="url(#paint0_linear_140_2214)" stroke-width="1.33333" stroke-linecap="round" stroke-linejoin="round"/>
<defs>
<linearGradient id="paint0_linear_140_2214" x1="2.03486" y1="2.19736" x2="13.2414" y2="9.68173" gradientUnits="userSpaceOnUse">
<stop stop-color="#5DE2E7"/>
<stop offset="1" stop-color="#5EC2FE"/>
</linearGradient>
</defs>
</svg>
