<svg width="20" height="21" viewBox="0 0 20 21" fill="none" xmlns="http://www.w3.org/2000/svg">
<g clip-path="url(#clip0_23_180)">
<g clip-path="url(#clip1_23_180)">
<path d="M18.9919 10.1153C18.9919 9.35851 18.9318 8.80624 18.8017 8.23352H10.3426V11.6494H15.3079C15.2078 12.4983 14.6673 13.7767 13.4659 14.6357L13.4491 14.7501L16.1237 16.8669L16.309 16.8858C18.0108 15.2801 18.9919 12.9176 18.9919 10.1153" fill="#4285F4"/>
<path d="M10.3426 19.1154C12.7752 19.1154 14.8174 18.2972 16.309 16.8858L13.4659 14.6358C12.7051 15.1778 11.684 15.5563 10.3426 15.5563C7.96004 15.5563 5.93787 13.9506 5.21703 11.7313L5.11137 11.7405L2.33025 13.9393L2.29388 14.0426C3.77547 17.0494 6.81876 19.1154 10.3426 19.1154Z" fill="#34A853"/>
<path d="M5.21704 11.7313C5.02684 11.1586 4.91676 10.5449 4.91676 9.91086C4.91676 9.27674 5.02684 8.66313 5.20704 8.09041L5.202 7.96843L2.38603 5.73425L2.2939 5.77902C1.68327 7.02676 1.33289 8.42792 1.33289 9.91086C1.33289 11.3938 1.68327 12.7949 2.2939 14.0426L5.21704 11.7313" fill="#FBBC05"/>
<path d="M10.3426 4.26535C12.0344 4.26535 13.1756 5.01193 13.8263 5.63584L16.3691 3.09947C14.8074 1.61653 12.7752 0.706299 10.3426 0.706299C6.81876 0.706299 3.77547 2.77218 2.29388 5.77896L5.20702 8.09035C5.93787 5.87105 7.96004 4.26535 10.3426 4.26535" fill="#EB4335"/>
</g>
</g>
<defs>
<clipPath id="clip0_23_180">
<rect width="19.4334" height="19.4334" fill="white" transform="translate(0.361206 0.679932)"/>
</clipPath>
<clipPath id="clip1_23_180">
<rect x="1.33289" y="0.679932" width="17.6591" height="18.4618" rx="8.82954" fill="white"/>
</clipPath>
</defs>
</svg>
