<svg width="18" height="18" viewBox="0 0 18 18" fill="none" xmlns="http://www.w3.org/2000/svg">
<path d="M5.30556 16.5V15.6389C5.30556 15.1821 5.487 14.7441 5.80998 14.4211C6.13296 14.0981 6.57102 13.9167 7.02778 13.9167H10.4722C10.929 13.9167 11.367 14.0981 11.69 14.4211C12.013 14.7441 12.1944 15.1821 12.1944 15.6389V16.5M13.0556 7.02778H14.7778C15.2345 7.02778 15.6726 7.20923 15.9956 7.53221C16.3186 7.85518 16.5 8.29324 16.5 8.75V9.61111M1 9.61111V8.75C1 8.29324 1.18145 7.85518 1.50443 7.53221C1.82741 7.20923 2.26546 7.02778 2.72222 7.02778H4.44444M7.02778 9.61111C7.02778 10.0679 7.20923 10.5059 7.53221 10.8289C7.85518 11.1519 8.29324 11.3333 8.75 11.3333C9.20676 11.3333 9.64482 11.1519 9.96779 10.8289C10.2908 10.5059 10.4722 10.0679 10.4722 9.61111C10.4722 9.15435 10.2908 8.7163 9.96779 8.39332C9.64482 8.07034 9.20676 7.88889 8.75 7.88889C8.29324 7.88889 7.85518 8.07034 7.53221 8.39332C7.20923 8.7163 7.02778 9.15435 7.02778 9.61111ZM11.3333 2.72222C11.3333 3.17898 11.5148 3.61704 11.8378 3.94002C12.1607 4.263 12.5988 4.44444 13.0556 4.44444C13.5123 4.44444 13.9504 4.263 14.2734 3.94002C14.5963 3.61704 14.7778 3.17898 14.7778 2.72222C14.7778 2.26546 14.5963 1.82741 14.2734 1.50443C13.9504 1.18145 13.5123 1 13.0556 1C12.5988 1 12.1607 1.18145 11.8378 1.50443C11.5148 1.82741 11.3333 2.26546 11.3333 2.72222ZM2.72222 2.72222C2.72222 3.17898 2.90367 3.61704 3.22665 3.94002C3.54963 4.263 3.98768 4.44444 4.44444 4.44444C4.90121 4.44444 5.33926 4.263 5.66224 3.94002C5.98522 3.61704 6.16667 3.17898 6.16667 2.72222C6.16667 2.26546 5.98522 1.82741 5.66224 1.50443C5.33926 1.18145 4.90121 1 4.44444 1C3.98768 1 3.54963 1.18145 3.22665 1.50443C2.90367 1.82741 2.72222 2.26546 2.72222 2.72222Z" stroke="url(#paint0_linear_140_2223)" stroke-width="1.72222" stroke-linecap="round" stroke-linejoin="round"/>
<defs>
<linearGradient id="paint0_linear_140_2223" x1="2.3367" y1="2.54659" x2="16.8118" y2="12.2139" gradientUnits="userSpaceOnUse">
<stop stop-color="#5DE2E7"/>
<stop offset="1" stop-color="#5EC2FE"/>
</linearGradient>
</defs>
</svg>
