<svg width="16" height="15" viewBox="0 0 16 15" fill="none" xmlns="http://www.w3.org/2000/svg">
<path d="M5 4.25V2.75C5 2.35218 5.15804 1.97064 5.43934 1.68934C5.72064 1.40804 6.10218 1.25 6.5 1.25H9.5C9.89782 1.25 10.2794 1.40804 10.5607 1.68934C10.842 1.97064 11 2.35218 11 2.75V4.25M1.25 5.75C1.25 5.35218 1.40804 4.97064 1.68934 4.68934C1.97064 4.40804 2.35218 4.25 2.75 4.25H13.25C13.6478 4.25 14.0294 4.40804 14.3107 4.68934C14.592 4.97064 14.75 5.35218 14.75 5.75V12.5C14.75 12.8978 14.592 13.2794 14.3107 13.5607C14.0294 13.842 13.6478 14 13.25 14H2.75C2.35218 14 1.97064 13.842 1.68934 13.5607C1.40804 13.2794 1.25 12.8978 1.25 12.5V5.75Z" stroke="url(#paint0_linear_140_2238)" stroke-width="1.5" stroke-linecap="round" stroke-linejoin="round"/>
<defs>
<linearGradient id="paint0_linear_140_2238" x1="2.41422" y1="2.5222" x2="14.5676" y2="11.1164" gradientUnits="userSpaceOnUse">
<stop stop-color="#5DE2E7"/>
<stop offset="1" stop-color="#5EC2FE"/>
</linearGradient>
</defs>
</svg>
