<svg width="21" height="20" viewBox="0 0 21 20" fill="none" xmlns="http://www.w3.org/2000/svg">
<path d="M3 5.83366C3 5.39163 3.17559 4.96771 3.48816 4.65515C3.80072 4.34259 4.22464 4.16699 4.66667 4.16699H16.3333C16.7754 4.16699 17.1993 4.34259 17.5118 4.65515C17.8244 4.96771 18 5.39163 18 5.83366M3 5.83366V14.167C3 14.609 3.17559 15.0329 3.48816 15.3455C3.80072 15.6581 4.22464 15.8337 4.66667 15.8337H16.3333C16.7754 15.8337 17.1993 15.6581 17.5118 15.3455C17.8244 15.0329 18 14.609 18 14.167V5.83366M3 5.83366L10.5 10.8337L18 5.83366" stroke="black" stroke-width="1.66667" stroke-linecap="round" stroke-linejoin="round"/>
</svg>
