<svg width="24" height="24" viewBox="0 0 24 24" fill="none" xmlns="http://www.w3.org/2000/svg">
<g opacity="0.5">
<path d="M8.53432 4.96997C8.32652 4.9654 8.12245 5.02564 7.9505 5.1424C7.77854 5.25917 7.64724 5.4267 7.57485 5.62154C7.50246 5.81638 7.49257 6.0289 7.54656 6.22962C7.60055 6.43034 7.71575 6.60917 7.87612 6.74139L13.9953 11.9836L7.87612 17.2239C7.76518 17.3054 7.67227 17.409 7.60321 17.5281C7.53415 17.6472 7.49043 17.7793 7.47478 17.9161C7.45913 18.0529 7.47189 18.1914 7.51227 18.323C7.55264 18.4546 7.61976 18.5765 7.70941 18.681C7.79907 18.7855 7.90933 18.8703 8.0333 18.9302C8.15727 18.9901 8.29227 19.0237 8.42984 19.029C8.56742 19.0343 8.70461 19.0112 8.83282 18.9611C8.96103 18.9109 9.07751 18.8348 9.17495 18.7375L16.1808 12.7433C16.2908 12.6494 16.3792 12.5329 16.4398 12.4016C16.5003 12.2702 16.5317 12.1273 16.5317 11.9826C16.5317 11.838 16.5003 11.6951 16.4398 11.5637C16.3792 11.4324 16.2908 11.3157 16.1808 11.2219L9.17495 5.22188C8.99797 5.06468 8.77097 4.97531 8.53432 4.96974V4.96997Z" fill="#111111"/>
</g>
</svg>
