<svg width="17" height="17" viewBox="0 0 19 19" fill="none" xmlns="http://www.w3.org/2000/svg">
<path d="M11.2499 5.25043C11.0972 5.40621 11.0117 5.61564 11.0117 5.83376C11.0117 6.05189 11.0972 6.26132 11.2499 6.4171L12.5832 7.75043C12.739 7.90312 12.9484 7.98865 13.1665 7.98865C13.3847 7.98865 13.5941 7.90312 13.7499 7.75043L16.8915 4.60876C17.3106 5.53476 17.4374 6.56646 17.2553 7.56639C17.0731 8.56631 16.5905 9.48697 15.8718 10.2057C15.1531 10.9244 14.2324 11.407 13.2325 11.5891C12.2326 11.7713 11.2009 11.6445 10.2749 11.2254L4.51655 16.9838C4.18503 17.3153 3.73539 17.5015 3.26655 17.5015C2.79771 17.5015 2.34807 17.3153 2.01655 16.9838C1.68503 16.6522 1.49878 16.2026 1.49878 15.7338C1.49878 15.2649 1.68503 14.8153 2.01655 14.4838L7.77488 8.72543C7.35585 7.79944 7.22898 6.76774 7.41116 5.76781C7.59335 4.76788 8.07595 3.84723 8.79465 3.12853C9.51334 2.40984 10.434 1.92724 11.4339 1.74505C12.4339 1.56286 13.4656 1.68973 14.3915 2.10876L11.2582 5.2421L11.2499 5.25043Z" stroke="#66707A" stroke-width="2" stroke-linecap="round" stroke-linejoin="round"/>
</svg>
