<svg width="24" height="24" viewBox="0 0 24 24" fill="none" xmlns="http://www.w3.org/2000/svg">
<g clip-path="url(#clip0_47_5069)">
<path d="M12 21.8498C11.6505 21.8553 11.3058 21.7691 11 21.5998L10.7 21.4298C8.36326 20.1077 6.41925 18.1892 5.06646 15.8702C3.71368 13.5511 3.00058 10.9146 2.99999 8.22978V8.08979C2.99682 7.73567 3.08773 7.38707 3.26342 7.0796C3.43912 6.77214 3.6933 6.51683 3.99999 6.33979L11 2.39979C11.304 2.22425 11.6489 2.13184 12 2.13184C12.3511 2.13184 12.696 2.22425 13 2.39979L20 6.33979C20.3067 6.51683 20.5609 6.77214 20.7366 7.0796C20.9123 7.38707 21.0032 7.73567 21 8.08979V8.22978C20.9974 10.9166 20.2813 13.5544 18.9249 15.8737C17.5685 18.1929 15.6204 20.1103 13.28 21.4298L12.98 21.5998C12.6801 21.7657 12.3427 21.8518 12 21.8498ZM12 4.14979L4.99999 8.08979V8.22978C5.00167 10.5609 5.62299 12.8496 6.80029 14.8616C7.97759 16.8736 9.66857 18.5364 11.7 19.6798L12 19.8498L12.3 19.6798C14.3314 18.5364 16.0224 16.8736 17.1997 14.8616C18.377 12.8496 18.9983 10.5609 19 8.22978V8.08979L12 4.14979Z" fill="#111111"/>
</g>
<defs>
<clipPath id="clip0_47_5069">
<rect width="24" height="24" fill="white"/>
</clipPath>
</defs>
</svg>
