<svg width="17" height="21" viewBox="0 0 17 21" fill="none" xmlns="http://www.w3.org/2000/svg">
<path d="M14.079 11.214C14.0702 9.58069 14.799 8.34793 16.2742 7.44006C15.4488 6.2429 14.2019 5.58425 12.5555 5.45519C10.9968 5.33058 9.29333 6.37642 8.66988 6.37642C8.0113 6.37642 6.50097 5.49969 5.31553 5.49969C2.86563 5.53974 0.262054 7.48011 0.262054 11.4276C0.262054 12.5936 0.472799 13.7982 0.894288 15.0413C1.45627 16.6746 3.48469 20.6799 5.60091 20.6132C6.70732 20.5865 7.48883 19.8166 8.92892 19.8166C10.3251 19.8166 11.0495 20.6132 12.2833 20.6132C14.4171 20.582 16.2523 16.9416 16.7879 15.3039C13.9253 13.9376 14.079 11.2985 14.079 11.214ZM11.594 3.90646C12.7926 2.46453 12.6828 1.15167 12.6477 0.679932C11.5896 0.742237 10.3646 1.40979 9.66652 2.23311C8.89818 3.11429 8.44596 4.20463 8.54255 5.43294C9.68848 5.52194 10.7334 4.92559 11.594 3.90646Z" fill="black"/>
</svg>
